<svg width="720" height="1024" viewBox="0 0 720 1024" fill="none" xmlns="http://www.w3.org/2000/svg">
<rect width="720" height="1024" fill="#0066D4"/>
<path d="M113.995 542.285C113.298 542.285 112.418 542.248 111.355 542.175C110.292 542.102 109.228 541.955 108.165 541.735V532.715C108.898 532.862 109.613 532.953 110.31 532.99C111.043 533.063 111.593 533.1 111.96 533.1C113.61 533.1 114.728 532.66 115.315 531.78C115.902 530.9 116.195 529.47 116.195 527.49V493.225H128.075V527.435C128.075 530.808 127.617 533.595 126.7 535.795C125.783 537.995 124.298 539.627 122.245 540.69C120.192 541.753 117.442 542.285 113.995 542.285ZM145.667 532L131.697 493.225H143.907L152.102 519.13H149.407L158.757 493.225H167.172L175.477 519.13H172.892L181.912 493.225H193.352L179.327 532H169.922L162.002 509.34H163.267L155.127 532H145.667ZM206.731 532V502.795H195.511V493.225H229.831V502.795H218.611V532H206.731ZM245.026 532L263.451 493.225H273.076L291.611 532H279.731L275.111 521.495L279.566 524.795H257.071L261.471 521.495L256.851 532H245.026ZM268.236 505.325L262.571 518.91L260.921 515.83H275.716L274.231 518.91L268.511 505.325H268.236ZM302.793 532.66C299.163 532.66 296.486 531.652 294.763 529.635C293.076 527.618 292.233 524.557 292.233 520.45V503.95H303.673V520.56C303.673 521.697 303.911 522.558 304.388 523.145C304.864 523.695 305.561 523.97 306.478 523.97C307.578 523.97 308.494 523.567 309.228 522.76C309.961 521.917 310.328 520.817 310.328 519.46V503.95H321.768V532H310.603V527.38H311.483C310.566 529.067 309.374 530.368 307.908 531.285C306.478 532.202 304.773 532.66 302.793 532.66ZM342.716 532.66C338.353 532.66 335.09 531.67 332.926 529.69C330.763 527.673 329.681 524.63 329.681 520.56V512.31H324.511V503.95H329.681V497.625L341.121 494.985V503.95H347.611V512.31H341.121V520.23C341.121 521.66 341.47 522.577 342.166 522.98C342.9 523.383 343.706 523.585 344.586 523.585C345.21 523.585 345.723 523.548 346.126 523.475C346.566 523.402 347.061 523.273 347.611 523.09V531.78C346.731 532.147 345.87 532.385 345.026 532.495C344.22 532.605 343.45 532.66 342.716 532.66ZM350.889 532V491.52H362.329V508.46H361.449C362.402 506.81 363.704 505.545 365.354 504.665C367.004 503.748 368.874 503.29 370.964 503.29C374.227 503.29 376.666 504.298 378.279 506.315C379.892 508.295 380.699 511.338 380.699 515.445V532H369.259V515.885C369.259 514.492 369.021 513.502 368.544 512.915C368.067 512.292 367.371 511.98 366.454 511.98C365.207 511.98 364.199 512.383 363.429 513.19C362.696 513.997 362.329 515.06 362.329 516.38V532H350.889ZM402.733 532V493.225H431.498V502.245H414.063V507.8H430.178V516.82H414.063V522.98H431.498V532H402.733ZM430.31 532L444.17 515.115V520.01L431.08 503.95H444.445L450.715 512.365H446.645L453.025 503.95H466.335L453.19 520.12V514.95L467.16 532H453.74L446.645 522.815H450.715L443.62 532H430.31ZM467.281 543.88V511.925C467.281 510.605 467.244 509.285 467.171 507.965C467.097 506.608 466.987 505.27 466.841 503.95H477.841L478.501 508.46H477.951C478.464 506.92 479.582 505.673 481.306 504.72C483.066 503.767 484.972 503.29 487.026 503.29C489.446 503.29 491.572 503.877 493.406 505.05C495.239 506.223 496.669 507.91 497.696 510.11C498.759 512.31 499.291 514.932 499.291 517.975C499.291 521.018 498.759 523.64 497.696 525.84C496.669 528.04 495.239 529.727 493.406 530.9C491.572 532.073 489.446 532.66 487.026 532.66C485.009 532.66 483.139 532.22 481.416 531.34C479.729 530.423 478.611 529.25 478.061 527.82H478.721V543.88H467.281ZM483.176 524.245C484.569 524.245 485.687 523.768 486.531 522.815C487.374 521.862 487.796 520.248 487.796 517.975C487.796 515.702 487.374 514.088 486.531 513.135C485.687 512.182 484.569 511.705 483.176 511.705C481.819 511.705 480.701 512.182 479.821 513.135C478.977 514.088 478.556 515.702 478.556 517.975C478.556 520.248 478.977 521.862 479.821 522.815C480.701 523.768 481.819 524.245 483.176 524.245ZM503.428 532V511.925C503.428 510.605 503.391 509.285 503.318 507.965C503.245 506.608 503.135 505.27 502.988 503.95H513.988L515.253 513.135H513.548C513.915 510.898 514.465 509.065 515.198 507.635C515.968 506.168 516.958 505.087 518.168 504.39C519.378 503.657 520.845 503.29 522.568 503.29C523.411 503.29 524.016 503.327 524.383 503.4C524.786 503.473 525.208 503.602 525.648 503.785V513.795C524.658 513.355 523.87 513.08 523.283 512.97C522.696 512.823 521.926 512.75 520.973 512.75C519.47 512.75 518.278 512.988 517.398 513.465C516.518 513.905 515.895 514.657 515.528 515.72C515.161 516.783 514.978 518.232 514.978 520.065V532H503.428ZM543.053 532.66C537.773 532.66 533.685 531.34 530.788 528.7C527.891 526.06 526.443 522.467 526.443 517.92C526.443 515.097 527.03 512.585 528.203 510.385C529.413 508.185 531.1 506.462 533.263 505.215C535.463 503.932 538.03 503.29 540.963 503.29C543.896 503.29 546.335 503.932 548.278 505.215C550.221 506.498 551.67 508.258 552.623 510.495C553.576 512.695 554.053 515.225 554.053 518.085V520.285H536.123V515.115H545.528L544.593 515.885C544.593 514.088 544.281 512.787 543.658 511.98C543.035 511.137 542.173 510.715 541.073 510.715C539.79 510.715 538.818 511.228 538.158 512.255C537.535 513.245 537.223 514.858 537.223 517.095V518.25C537.223 520.377 537.736 521.917 538.763 522.87C539.826 523.787 541.385 524.245 543.438 524.245C544.831 524.245 546.151 524.117 547.398 523.86C548.645 523.567 549.836 523.108 550.973 522.485L553.833 529.91C552.366 530.79 550.716 531.468 548.883 531.945C547.086 532.422 545.143 532.66 543.053 532.66ZM569.271 532.66C566.557 532.66 564.101 532.403 561.901 531.89C559.737 531.377 557.886 530.68 556.346 529.8L558.986 522.43C560.416 523.163 562.047 523.787 563.881 524.3C565.751 524.813 567.566 525.07 569.326 525.07C570.499 525.07 571.324 524.923 571.801 524.63C572.277 524.3 572.516 523.897 572.516 523.42C572.516 523.017 572.351 522.705 572.021 522.485C571.727 522.265 571.306 522.118 570.756 522.045L564.596 521C562.212 520.597 560.361 519.735 559.041 518.415C557.721 517.058 557.061 515.298 557.061 513.135C557.061 511.155 557.592 509.432 558.656 507.965C559.756 506.498 561.296 505.362 563.276 504.555C565.292 503.712 567.657 503.29 570.371 503.29C572.534 503.29 574.606 503.528 576.586 504.005C578.602 504.445 580.362 505.16 581.866 506.15L579.061 513.3C577.924 512.603 576.567 512.035 574.991 511.595C573.451 511.118 572.039 510.88 570.756 510.88C569.399 510.88 568.446 511.045 567.896 511.375C567.382 511.668 567.126 512.053 567.126 512.53C567.126 512.86 567.254 513.153 567.511 513.41C567.804 513.63 568.244 513.795 568.831 513.905L574.991 514.895C577.411 515.262 579.281 516.105 580.601 517.425C581.921 518.708 582.581 520.468 582.581 522.705C582.581 524.832 582.012 526.628 580.876 528.095C579.776 529.562 578.217 530.698 576.201 531.505C574.221 532.275 571.911 532.66 569.271 532.66ZM597.254 532.66C594.541 532.66 592.084 532.403 589.884 531.89C587.721 531.377 585.869 530.68 584.329 529.8L586.969 522.43C588.399 523.163 590.031 523.787 591.864 524.3C593.734 524.813 595.549 525.07 597.309 525.07C598.483 525.07 599.308 524.923 599.784 524.63C600.261 524.3 600.499 523.897 600.499 523.42C600.499 523.017 600.334 522.705 600.004 522.485C599.711 522.265 599.289 522.118 598.739 522.045L592.579 521C590.196 520.597 588.344 519.735 587.024 518.415C585.704 517.058 585.044 515.298 585.044 513.135C585.044 511.155 585.576 509.432 586.639 507.965C587.739 506.498 589.279 505.362 591.259 504.555C593.276 503.712 595.641 503.29 598.354 503.29C600.518 503.29 602.589 503.528 604.569 504.005C606.586 504.445 608.346 505.16 609.849 506.15L607.044 513.3C605.908 512.603 604.551 512.035 602.974 511.595C601.434 511.118 600.023 510.88 598.739 510.88C597.383 510.88 596.429 511.045 595.879 511.375C595.366 511.668 595.109 512.053 595.109 512.53C595.109 512.86 595.238 513.153 595.494 513.41C595.788 513.63 596.228 513.795 596.814 513.905L602.974 514.895C605.394 515.262 607.264 516.105 608.584 517.425C609.904 518.708 610.564 520.468 610.564 522.705C610.564 524.832 609.996 526.628 608.859 528.095C607.759 529.562 606.201 530.698 604.184 531.505C602.204 532.275 599.894 532.66 597.254 532.66Z" fill="white"/>
<path d="M386.417 390.208H381.958V381.292C381.958 368.987 371.972 359 359.667 359C347.362 359 337.375 368.987 337.375 381.292V390.208H332.917C328.013 390.208 324 394.221 324 399.125V443.708C324 448.613 328.013 452.625 332.917 452.625H386.417C391.321 452.625 395.333 448.613 395.333 443.708V399.125C395.333 394.221 391.321 390.208 386.417 390.208ZM359.667 430.333C354.763 430.333 350.75 426.321 350.75 421.417C350.75 416.513 354.763 412.5 359.667 412.5C364.571 412.5 368.583 416.513 368.583 421.417C368.583 426.321 364.571 430.333 359.667 430.333ZM373.488 390.208H345.846V381.292C345.846 373.668 352.043 367.471 359.667 367.471C367.29 367.471 373.488 373.668 373.488 381.292V390.208Z" fill="white"/>
</svg>
